<?xml version="1.0" encoding="UTF-8" standalone="no"?>
<!-- Created with Inkscape (http://www.inkscape.org/) -->

<svg
   xmlns:dc="http://purl.org/dc/elements/1.1/"
   xmlns:cc="http://creativecommons.org/ns#"
   xmlns:rdf="http://www.w3.org/1999/02/22-rdf-syntax-ns#"
   xmlns:svg="http://www.w3.org/2000/svg"
   xmlns="http://www.w3.org/2000/svg"
   xmlns:sodipodi="http://sodipodi.sourceforge.net/DTD/sodipodi-0.dtd"
   xmlns:inkscape="http://www.inkscape.org/namespaces/inkscape"
   width="297mm"
   height="210mm"
   viewBox="0 0 297 210"
   version="1.1"
   id="svg5053"
   inkscape:version="0.92.2 (5c3e80d, 2017-08-06)"
   sodipodi:docname="ic3.svg">
  <defs
     id="defs5047">
    <marker
       inkscape:stockid="Arrow1Mend"
       orient="auto"
       refY="0.0"
       refX="0.0"
       id="Arrow1Mend"
       style="overflow:visible;"
       inkscape:isstock="true">
      <path
         id="path5770"
         d="M 0.0,0.0 L 5.0,-5.0 L -12.5,0.0 L 5.0,5.0 L 0.0,0.0 z "
         style="fill-rule:evenodd;stroke:#000000;stroke-width:1pt;stroke-opacity:1;fill:#000000;fill-opacity:1"
         transform="scale(0.4) rotate(180) translate(10,0)" />
    </marker>
    <marker
       inkscape:stockid="Arrow1Mstart"
       orient="auto"
       refY="0.0"
       refX="0.0"
       id="Arrow1Mstart"
       style="overflow:visible"
       inkscape:isstock="true">
      <path
         id="path5767"
         d="M 0.0,0.0 L 5.0,-5.0 L -12.5,0.0 L 5.0,5.0 L 0.0,0.0 z "
         style="fill-rule:evenodd;stroke:#000000;stroke-width:1pt;stroke-opacity:1;fill:#000000;fill-opacity:1"
         transform="scale(0.4) translate(10,0)" />
    </marker>
    <marker
       inkscape:stockid="Arrow2Mstart"
       orient="auto"
       refY="0.0"
       refX="0.0"
       id="Arrow2Mstart"
       style="overflow:visible"
       inkscape:isstock="true">
      <path
         id="path5785"
         style="fill-rule:evenodd;stroke-width:0.625;stroke-linejoin:round;stroke:#000000;stroke-opacity:1;fill:#000000;fill-opacity:1"
         d="M 8.7185878,4.0337352 L -2.2072895,0.016013256 L 8.7185884,-4.0017078 C 6.9730900,-1.6296469 6.9831476,1.6157441 8.7185878,4.0337352 z "
         transform="scale(0.6) translate(0,0)" />
    </marker>
    <marker
       inkscape:stockid="Arrow2Lstart"
       orient="auto"
       refY="0.0"
       refX="0.0"
       id="Arrow2Lstart"
       style="overflow:visible"
       inkscape:isstock="true">
      <path
         id="path5779"
         style="fill-rule:evenodd;stroke-width:0.625;stroke-linejoin:round;stroke:#000000;stroke-opacity:1;fill:#000000;fill-opacity:1"
         d="M 8.7185878,4.0337352 L -2.2072895,0.016013256 L 8.7185884,-4.0017078 C 6.9730900,-1.6296469 6.9831476,1.6157441 8.7185878,4.0337352 z "
         transform="scale(1.1) translate(1,0)" />
    </marker>
    <marker
       inkscape:stockid="Arrow1Sstart"
       orient="auto"
       refY="0"
       refX="0"
       id="Arrow1Sstart"
       style="overflow:visible"
       inkscape:isstock="true">
      <path
         id="path5773"
         d="M 0,0 5,-5 -12.5,0 5,5 Z"
         style="fill:#000000;fill-opacity:1;fill-rule:evenodd;stroke:#000000;stroke-width:1.00000003pt;stroke-opacity:1"
         transform="matrix(0.2,0,0,0.2,1.2,0)"
         inkscape:connector-curvature="0" />
    </marker>
    <marker
       inkscape:stockid="Arrow1Sstart"
       orient="auto"
       refY="0"
       refX="0"
       id="Arrow1Sstart-0"
       style="overflow:visible"
       inkscape:isstock="true">
      <path
         inkscape:connector-curvature="0"
         id="path5773-1"
         d="M 0,0 5,-5 -12.5,0 5,5 Z"
         style="fill:#000000;fill-opacity:1;fill-rule:evenodd;stroke:#000000;stroke-width:1.00000003pt;stroke-opacity:1"
         transform="matrix(0.2,0,0,0.2,1.2,0)" />
    </marker>
    <marker
       inkscape:stockid="Arrow1Mstart"
       orient="auto"
       refY="0"
       refX="0"
       id="Arrow1Mstart-6"
       style="overflow:visible"
       inkscape:isstock="true">
      <path
         inkscape:connector-curvature="0"
         id="path5767-4"
         d="M 0,0 5,-5 -12.5,0 5,5 Z"
         style="fill:#000000;fill-opacity:1;fill-rule:evenodd;stroke:#000000;stroke-width:1.00000003pt;stroke-opacity:1"
         transform="matrix(0.4,0,0,0.4,4,0)" />
    </marker>
  </defs>
  <sodipodi:namedview
     id="base"
     pagecolor="#ffffff"
     bordercolor="#666666"
     borderopacity="1.0"
     inkscape:pageopacity="0.0"
     inkscape:pageshadow="2"
     inkscape:zoom="1.4"
     inkscape:cx="603.55309"
     inkscape:cy="204.52604"
     inkscape:document-units="mm"
     inkscape:current-layer="layer1"
     showgrid="false"
     inkscape:window-width="1708"
     inkscape:window-height="881"
     inkscape:window-x="-9"
     inkscape:window-y="-9"
     inkscape:window-maximized="1" />
  <metadata
     id="metadata5050">
    <rdf:RDF>
      <cc:Work
         rdf:about="">
        <dc:format>image/svg+xml</dc:format>
        <dc:type
           rdf:resource="http://purl.org/dc/dcmitype/StillImage" />
        <dc:title></dc:title>
      </cc:Work>
    </rdf:RDF>
  </metadata>
  <g
     inkscape:label="Layer 1"
     inkscape:groupmode="layer"
     id="layer1"
     transform="translate(0,-87)">
    <text
       xml:space="preserve"
       style="font-style:normal;font-weight:normal;font-size:10.58333302px;line-height:1.25;font-family:sans-serif;letter-spacing:0px;word-spacing:0px;fill:#000000;fill-opacity:1;stroke:none;stroke-width:0.26458332"
       x="169.84979"
       y="108.70862"
       id="text5662"><tspan
         sodipodi:role="line"
         x="169.84979"
         y="118.07239"
         style="stroke-width:0.26458332"
         id="tspan5664" /></text>
    <path
       style="fill:none;stroke:#000000;stroke-width:0.42552188px;stroke-linecap:butt;stroke-linejoin:miter;stroke-opacity:1"
       d="m 173.7052,193.89948 c -15.17401,25.30709 -30.17504,46.43314 -45.52212,75.92349 L 83.269759,194.19991"
       id="path5609"
       inkscape:connector-curvature="0"
       sodipodi:nodetypes="ccc" />
    <path
       style="opacity:1;fill:none;fill-opacity:1;stroke:#192539;stroke-width:0.74141324;stroke-miterlimit:4;stroke-dasharray:none;stroke-dashoffset:0;stroke-opacity:1"
       id="path5611"
       sodipodi:type="arc"
       sodipodi:cx="128.40364"
       sodipodi:cy="193.03516"
       sodipodi:rx="45.301556"
       sodipodi:ry="5.7087798"
       sodipodi:start="0.066715369"
       sodipodi:end="0"
       sodipodi:open="true"
       d="m 173.60442,193.41574 a 45.301556,5.7087798 0 0 1 -47.46657,5.32105 45.301556,5.7087798 0 0 1 -43.010563,-5.89203 45.301556,5.7087798 0 0 1 46.031893,-5.51759 45.301556,5.7087798 0 0 1 44.54602,5.70799" />
    <path
       style="opacity:1;fill:none;fill-opacity:1;stroke:#192539;stroke-width:1.14344597;stroke-miterlimit:4;stroke-dasharray:none;stroke-dashoffset:0;stroke-opacity:1"
       id="path5613"
       sodipodi:type="arc"
       sodipodi:cx="128.28648"
       sodipodi:cy="193.56834"
       sodipodi:rx="45.087509"
       sodipodi:ry="57.984478"
       sodipodi:start="3.1318305"
       sodipodi:end="0"
       d="m 83.201123,194.13439 a 45.087509,57.984478 0 0 1 22.287967,-50.59233 45.087509,57.984478 0 0 1 45.21397,-0.28382 45.087509,57.984478 0 0 1 22.67093,50.3101"
       sodipodi:open="true" />
    <path
       style="fill:none;stroke:#000000;stroke-width:0.41515628px;stroke-linecap:butt;stroke-linejoin:miter;stroke-opacity:1"
       d="M 128.18308,269.82297 127.33559,92.054297"
       id="path5620"
       inkscape:connector-curvature="0" />
    <path
       style="fill:none;stroke:#000000;stroke-width:0.42552188px;stroke-linecap:butt;stroke-linejoin:miter;stroke-opacity:1"
       d="m 125.39532,193.91585 5.13654,0.26977"
       id="path5658"
       inkscape:connector-curvature="0" />
    <flowRoot
       xml:space="preserve"
       id="flowRoot5650-9"
       style="font-style:normal;font-weight:normal;font-size:40px;line-height:1.25;font-family:sans-serif;letter-spacing:0px;word-spacing:0px;fill:#000000;fill-opacity:1;stroke:none"
       transform="matrix(0.2450019,0,0,0.30925687,62.115602,70.031512)"><flowRegion
         id="flowRegion5652-8"><rect
           id="rect5654-9"
           width="448.00269"
           height="68.690392"
           x="541.94684"
           y="506.32663" /></flowRegion><flowPara
         id="flowPara5656-1">z=r<flowSpan
   style="font-size:64.99999762%;baseline-shift:super"
   id="flowSpan5696" /></flowPara></flowRoot>    <path
       style="opacity:0.769;fill:#dbb4b4;fill-opacity:0.46766172;stroke:#192539;stroke-width:0.7414133;stroke-miterlimit:4;stroke-dasharray:none;stroke-dashoffset:0;stroke-opacity:1"
       id="path5611-8"
       sodipodi:type="arc"
       sodipodi:cx="126.45572"
       sodipodi:cy="268.10605"
       sodipodi:rx="45.301556"
       sodipodi:ry="5.7087798"
       sodipodi:start="0.066715369"
       sodipodi:end="0"
       sodipodi:open="true"
       d="m 171.65649,268.48663 a 45.301556,5.7087798 0 0 1 -47.46656,5.32105 45.301556,5.7087798 0 0 1 -43.010565,-5.89203 45.301556,5.7087798 0 0 1 46.031895,-5.51759 45.301556,5.7087798 0 0 1 44.54601,5.70799" />
    <path
       style="fill:none;stroke:#000000;stroke-width:0.29450157;stroke-linecap:butt;stroke-linejoin:miter;stroke-miterlimit:4;stroke-dasharray:0.29450156, 0.88350468;stroke-dashoffset:0;stroke-opacity:1"
       d="M 158.56548,265.44413 158.29005,150.41371"
       id="path5757"
       inkscape:connector-curvature="0" />
    <path
       style="fill:none;stroke:#000000;stroke-width:0.27332094;stroke-linecap:butt;stroke-linejoin:miter;stroke-miterlimit:4;stroke-dasharray:0.27332093, 0.81996278;stroke-dashoffset:0;stroke-opacity:1"
       d="m 128.21033,269.81499 30.35515,-4.37086"
       id="path6278"
       inkscape:connector-curvature="0"
       sodipodi:nodetypes="cc" />
    <text
       xml:space="preserve"
       style="font-style:normal;font-weight:normal;font-size:8.78558922px;line-height:1.25;font-family:sans-serif;letter-spacing:0px;word-spacing:0px;fill:#000000;fill-opacity:1;stroke:none;stroke-width:0.21963973"
       x="145.36339"
       y="263.70633"
       id="text6282"
       transform="scale(0.98936839,1.0107459)"><tspan
         sodipodi:role="line"
         id="tspan6280"
         x="145.36339"
         y="263.70633"
         style="stroke-width:0.21963973">r</tspan></text>
    <flowRoot
       xml:space="preserve"
       id="flowRoot5650-9-2"
       style="font-style:normal;font-weight:normal;font-size:40px;line-height:1.25;font-family:sans-serif;letter-spacing:0px;word-spacing:0px;fill:#000000;fill-opacity:1;stroke:none"
       transform="matrix(0.24271831,0,0,0.25463802,37.510887,17.112795)"><flowRegion
         id="flowRegion5652-8-7"><rect
           id="rect5654-9-8"
           width="611.6474"
           height="72.225937"
           x="541.94684"
           y="506.32663" /></flowRegion><flowPara
         id="flowPara5656-1-5">z=.5+(.25-r<flowSpan
   style="font-size:64.99999762%;baseline-shift:super"
   id="flowSpan6467">2</flowSpan>)<flowSpan
   style="font-size:64.99999762%;baseline-shift:super"
   id="flowSpan6463">1/2</flowSpan></flowPara></flowRoot>    <flowRoot
       xml:space="preserve"
       id="flowRoot6311"
       style="font-style:normal;font-weight:normal;font-size:40px;line-height:1.25;font-family:sans-serif;letter-spacing:0px;word-spacing:0px;fill:#000000;fill-opacity:1;stroke:none"
       transform="matrix(0.33899451,0,0,0.53413514,141.97754,-114.88021)"><flowRegion
         id="flowRegion6313"><rect
           id="rect6315"
           width="324.28571"
           height="57.857159"
           x="100.71429"
           y="576.80542" /></flowRegion><flowPara
         id="flowPara6317">lower surface</flowPara></flowRoot>    <flowRoot
       xml:space="preserve"
       id="flowRoot6311-6"
       style="font-style:normal;font-weight:normal;font-size:40px;line-height:1.25;font-family:sans-serif;letter-spacing:0px;word-spacing:0px;fill:#000000;fill-opacity:1;stroke:none"
       transform="matrix(0.33899451,0,0,0.53413514,115.24552,-198.91653)"><flowRegion
         id="flowRegion6313-1"><rect
           id="rect6315-5"
           width="324.28571"
           height="57.857159"
           x="100.71429"
           y="576.80542" /></flowRegion><flowPara
         id="flowPara6317-4">upper surface</flowPara></flowRoot>    <flowRoot
       xml:space="preserve"
       id="flowRoot6311-7"
       style="font-style:normal;font-weight:normal;font-size:40px;line-height:1.25;font-family:sans-serif;letter-spacing:0px;word-spacing:0px;fill:#000000;fill-opacity:1;stroke:none"
       transform="matrix(0.33899451,0,0,0.53413514,2.1003957,-35.662833)"><flowRegion
         id="flowRegion6313-6"><rect
           id="rect6315-7"
           width="324.28571"
           height="57.857159"
           x="100.71429"
           y="576.80542" /></flowRegion><flowPara
         id="flowPara6317-5">base region</flowPara></flowRoot>    <flowRoot
       xml:space="preserve"
       id="flowRoot5650-9-9"
       style="font-style:normal;font-weight:normal;font-size:40px;line-height:1.25;font-family:sans-serif;letter-spacing:0px;word-spacing:0px;fill:#000000;fill-opacity:1;stroke:none"
       transform="matrix(0.26458333,0,0,0.26458333,25.697442,-1.8884368)"><flowRegion
         id="flowRegion5652-8-4"><rect
           id="rect5654-9-0"
           width="448.00269"
           height="68.690392"
           x="541.94684"
           y="506.32663" /></flowRegion><flowPara
         id="flowPara5656-1-3">x<flowSpan
   style="font-size:64.99999762%;baseline-shift:super"
   id="flowSpan5692-3">2</flowSpan>+y<flowSpan
   style="font-size:64.99999762%;baseline-shift:super"
   id="flowSpan5731">2</flowSpan>+z<flowSpan
   style="font-size:64.99999762%;baseline-shift:super"
   id="flowSpan5733">2</flowSpan>=z<flowSpan
   style="font-size:64.99999762%;baseline-shift:super"
   id="flowSpan5694-8" /></flowPara></flowRoot>    <flowRoot
       xml:space="preserve"
       id="flowRoot5650-9-5"
       style="font-style:normal;font-weight:normal;font-size:40px;line-height:1.25;font-family:sans-serif;letter-spacing:0px;word-spacing:0px;fill:#000000;fill-opacity:1;stroke:none"
       transform="matrix(0.26458333,0,0,0.26458333,40.963208,80.888354)"><flowRegion
         id="flowRegion5652-8-3"><rect
           id="rect5654-9-3"
           width="448.00269"
           height="68.690392"
           x="541.94684"
           y="506.32663" /></flowRegion><flowPara
         id="flowPara5656-1-50">z=(x<flowSpan
   style="font-size:64.99999762%;baseline-shift:super"
   id="flowSpan5692">2</flowSpan>+y<flowSpan
   style="font-size:64.99999762%;baseline-shift:super"
   id="flowSpan5694">2</flowSpan>)<flowSpan
   style="font-size:64.99999762%;baseline-shift:super"
   id="flowSpan5696-9">1/2</flowSpan></flowPara></flowRoot>    <path
       style="fill:none;stroke:#000000;stroke-width:0.49700916;stroke-linecap:butt;stroke-linejoin:miter;stroke-miterlimit:4;stroke-dasharray:0.49700914, 1.49102737;stroke-dashoffset:0;stroke-opacity:1"
       d="M 128.21025,269.8146 158.29002,150.41376"
       id="path5757-4"
       inkscape:connector-curvature="0"
       sodipodi:nodetypes="cc" />
    <flowRoot
       xml:space="preserve"
       id="flowRoot5622-9"
       style="font-style:normal;font-weight:normal;font-size:40px;line-height:1.25;font-family:sans-serif;letter-spacing:0px;word-spacing:0px;fill:#000000;fill-opacity:1;stroke:none"
       transform="matrix(0.18022821,0,0,0.17443919,90.610128,113.65462)"><flowRegion
         id="flowRegion5624-0"><rect
           id="rect5626-6"
           width="317.85715"
           height="165"
           x="211.42857"
           y="718.23395" /></flowRegion><flowPara
         id="flowPara5628-9">ϕ</flowPara></flowRoot>    <flowRoot
       xml:space="preserve"
       id="flowRoot8157"
       style="font-style:normal;font-weight:normal;font-size:40px;line-height:1.25;font-family:sans-serif;letter-spacing:0px;word-spacing:0px;fill:#000000;fill-opacity:1;stroke:none"
       transform="matrix(0.08784439,0,0,0.17231174,84.397634,151.22208)"><flowRegion
         id="flowRegion8159"><rect
           id="rect8161"
           width="144.95689"
           height="86.873116"
           x="501.03568"
           y="586.12866" /></flowRegion><flowPara
         id="flowPara8163">π/4</flowPara></flowRoot>    <path
       style="fill:none;stroke:#000000;stroke-width:0.25508219px;stroke-linecap:butt;stroke-linejoin:miter;stroke-opacity:1"
       d="m 128.25255,260.37941 c 0.73394,0.24997 -0.10016,0.15653 0,0 0.0172,-0.0268 0.0557,0.0268 0.0728,0 0.0172,-0.0268 -0.0172,-0.087 0,-0.1139 0.0172,-0.0268 0.0557,0.0268 0.0729,0 0.0344,-0.0538 -0.0344,-0.1741 0,-0.22778 0.0344,-0.0536 0.10229,0.0339 0.14574,0 0.0307,-0.024 0.0422,-0.0899 0.0728,-0.11391 0.0217,-0.017 0.0557,0.0268 0.0729,0 0.15078,-0.23565 -0.23039,0.009 0.0728,-0.2278 0.0288,-0.0225 0.20371,0.0233 0.21861,0 0.0172,-0.0268 -0.0172,-0.087 0,-0.1139 h 0.0728 c 0.0243,0 0.0557,0.027 0.0728,0 0.0172,-0.0268 -0.0172,-0.087 0,-0.11389 0.002,-0.004 0.20093,0 0.21861,0 h 1.09304 0.43722 c 0.0173,0 0.27515,-0.0128 0.29148,0 0.0307,0.024 0.0421,0.0899 0.0728,0.11389 0.0583,0.0456 0.1603,-0.0456 0.2186,0 0.0307,0.024 0.0421,0.0899 0.0729,0.1139 0.0217,0.017 0.0485,0 0.0728,0 0.0243,0.038 0.0422,0.0899 0.0729,0.11391 0.0288,0.0225 0.2037,-0.0233 0.2186,0 0.0172,0.0268 -0.0172,0.087 0,0.1139 0.0172,0.0268 0.0557,-0.0268 0.0728,0 0.0172,0.0268 -0.0172,0.087 0,0.1139 0.0344,0.0536 0.1114,-0.0536 0.14574,0 0.0172,0.027 -0.0172,0.087 0,0.1139 0.0172,0.0268 0.0557,-0.0268 0.0728,0 0.0172,0.0268 -0.0172,0.087 0,0.11389 0.0172,0.0268 0.0557,-0.0268 0.0728,0 0.0344,0.0537 -0.0344,0.1741 0,0.2278 0.0172,0.0268 0.0557,-0.027 0.0729,0 0.0172,0.0268 -0.0172,0.087 0,0.11391 0.0172,0.0268 0.0557,-0.027 0.0728,0 0.0149,0.0233 -0.0144,0.29652 0,0.34167 0.0154,0.048 0.0575,0.0659 0.0728,0.1139 0.0109,0.0339 -0.0172,0.087 0,0.1139 0.0172,0.0268 0.0557,-0.0268 0.0729,0 0.0172,0.0268 0,0.076 0,0.1139 v 0.1139 c 0,0.038 0.0243,0.1139 0,0.1139 -0.10323,0 0.20646,-0.5315 0,0.1139 -0.0109,0.0339 -0.0485,0 -0.0729,0 -0.0243,0 -0.0728,0.038 -0.0728,0 0,-0.038 0.0512,0.017 0.0728,0 0.0307,-0.024 0.0485,-0.076 0.0729,-0.1139 0.0243,-0.038 0.0485,-0.076 0.0728,-0.1139"
       id="path8171"
       inkscape:connector-curvature="0"
       sodipodi:nodetypes="ccccccccccccsccscscccccccscccscsccsscccssssscssccc" />
    <text
       xml:space="preserve"
       style="font-style:normal;font-weight:normal;font-size:10.58333302px;line-height:1.25;font-family:sans-serif;letter-spacing:0px;word-spacing:0px;fill:#000000;fill-opacity:1;stroke:none;stroke-width:0.26458332"
       x="116.85152"
       y="157.19049"
       id="text8147"><tspan
         sodipodi:role="line"
         id="tspan8145"
         x="116.85152"
         y="166.55426"
         style="stroke-width:0.26458332" /></text>
    <g
       id="g11306"
       transform="matrix(1.340824,0.01655461,-0.0175602,1.2640411,15.41954,-45.394948)"
       inkscape:transform-center-x="2.9296593"
       inkscape:transform-center-y="-10.919316">
      <flowRoot
         transform="matrix(0.1246124,0,0,0.22548761,93.731979,-8.6742449)"
         style="font-style:normal;font-weight:normal;font-size:40px;line-height:1.25;font-family:sans-serif;letter-spacing:0px;word-spacing:0px;fill:#000000;fill-opacity:1;stroke:none"
         id="flowRoot5632"
         xml:space="preserve"><flowRegion
           id="flowRegion5634"><rect
             y="746.80542"
             x="287.14285"
             height="167.14285"
             width="325"
             id="rect5636" /></flowRegion><flowPara
           id="flowPara5638">ρ=cos(</flowPara></flowRoot>      <text
         transform="scale(0.9536505,1.0486022)"
         id="text5737"
         y="158.71236"
         x="154.08043"
         style="font-style:normal;font-weight:normal;font-size:6.74065828px;line-height:1.25;font-family:sans-serif;letter-spacing:0px;word-spacing:0px;fill:#000000;fill-opacity:1;stroke:none;stroke-width:0.16851646"
         xml:space="preserve"><tspan
           style="stroke-width:0.16851646"
           y="158.71236"
           x="154.08043"
           id="tspan5735"
           sodipodi:role="line">ϕ)</tspan></text>
      <path
         d="m 141.8925,169.35924 a 1.1811756,2.6930804 0 0 1 -5e-5,-0.0263 l 1.18117,0 z"
         sodipodi:end="3.1415927"
         sodipodi:start="3.1318363"
         sodipodi:ry="2.6930804"
         sodipodi:rx="1.1811756"
         sodipodi:cy="169.33296"
         sodipodi:cx="143.07362"
         sodipodi:type="arc"
         id="path8151"
         style="opacity:1;fill:#1a0125;fill-opacity:0.46766172;stroke:#192539;stroke-width:0.26499999;stroke-miterlimit:4;stroke-dasharray:0.26499998, 0.79499996;stroke-dashoffset:0;stroke-opacity:1" />
    </g>
    <path
       style="opacity:1;fill:#1a0125;fill-opacity:1;stroke:#192539;stroke-width:0.08309574;stroke-miterlimit:4;stroke-dasharray:0.08309574, 0.24928721;stroke-dashoffset:0;stroke-opacity:1"
       id="path8155"
       sodipodi:type="arc"
       sodipodi:cx="159.19455"
       sodipodi:cy="150.72346"
       sodipodi:rx="1.46122"
       sodipodi:ry="1.603042"
       sodipodi:start="3.3360179"
       sodipodi:end="3.1415927"
       d="m 157.76086,150.41375 a 1.46122,1.603042 0 0 1 1.64601,-1.27631 1.46122,1.603042 0 0 1 1.242,1.74162 1.46122,1.603042 0 0 1 -1.52532,1.44555 1.46122,1.603042 0 0 1 -1.39022,-1.60115"
       sodipodi:open="true" />
    <path
       style="opacity:1;fill:#1a0125;fill-opacity:1;stroke:#192539;stroke-width:0.08309574;stroke-miterlimit:4;stroke-dasharray:0.08309574, 0.24928721;stroke-dashoffset:0;stroke-opacity:1"
       id="path8155-1"
       sodipodi:type="arc"
       sodipodi:cx="158.43683"
       sodipodi:cy="217.73576"
       sodipodi:rx="1.46122"
       sodipodi:ry="1.603042"
       sodipodi:start="3.3360179"
       sodipodi:end="3.1415927"
       d="m 157.00314,217.42605 a 1.46122,1.603042 0 0 1 1.64601,-1.27632 1.46122,1.603042 0 0 1 1.242,1.74162 1.46122,1.603042 0 0 1 -1.52532,1.44556 1.46122,1.603042 0 0 1 -1.39022,-1.60115"
       sodipodi:open="true" />
    <flowRoot
       xml:space="preserve"
       id="flowRoot11308"
       style="font-style:normal;font-weight:normal;font-size:40px;line-height:1.25;font-family:sans-serif;letter-spacing:0px;word-spacing:0px;fill:#000000;fill-opacity:1;stroke:none"
       transform="matrix(0.26458333,0,0,0.26458333,1.889881,81.330357)"><flowRegion
         id="flowRegion11310"><rect
           id="rect11312"
           width="165.50526"
           height="59.195641"
           x="648.78046"
           y="685.93372" /></flowRegion><flowPara
         id="flowPara11314">(1/2,0)</flowPara></flowRoot>    <path
       style="opacity:1;fill:#1a0125;fill-opacity:1;stroke:#192539;stroke-width:0.04809495;stroke-miterlimit:4;stroke-dasharray:0.04809495, 0.14428482;stroke-dashoffset:0;stroke-opacity:1"
       id="path8155-1-0"
       sodipodi:type="arc"
       sodipodi:cx="171.53104"
       sodipodi:cy="268.36771"
       sodipodi:rx="0.86080313"
       sodipodi:ry="0.91158676"
       sodipodi:start="3.3360179"
       sodipodi:end="3.1415927"
       d="m 170.68645,268.19159 a 0.86080313,0.91158676 0 0 1 0.96966,-0.7258 0.86080313,0.91158676 0 0 1 0.73167,0.99039 0.86080313,0.91158676 0 0 1 -0.89857,0.82204 0.86080313,0.91158676 0 0 1 -0.81898,-0.91051"
       sodipodi:open="true" />
    <flowRoot
       xml:space="preserve"
       id="flowRoot5622-9-5"
       style="font-style:normal;font-weight:normal;font-size:40px;line-height:1.25;font-family:sans-serif;letter-spacing:0px;word-spacing:0px;fill:#000000;fill-opacity:1;stroke:none"
       transform="matrix(0.22009386,0,0,0.22325953,145.96572,78.700789)"><flowRegion
         id="flowRegion5624-0-9"><rect
           id="rect5626-6-7"
           width="317.85715"
           height="165"
           x="211.42857"
           y="718.23395" /></flowRegion><flowPara
         id="flowPara5628-9-8">ϕ=π/4</flowPara></flowRoot>    <path
       style="fill:none;stroke:#000000;stroke-width:0.26458332px;stroke-linecap:butt;stroke-linejoin:miter;stroke-opacity:1"
       d="m 128.21025,269.8146 43.44624,-1.32796"
       id="path11383"
       inkscape:connector-curvature="0" />
    <path
       style="fill:none;stroke:#000000;stroke-width:0.25508219px;stroke-linecap:butt;stroke-linejoin:miter;stroke-opacity:1"
       d="m 128.40682,248.96129 c 0.73394,0.24997 -0.10016,0.15653 0,0 0.0172,-0.0268 0.0557,0.0268 0.0728,0 0.0172,-0.0268 -0.0172,-0.087 0,-0.1139 0.0172,-0.0268 0.0557,0.0268 0.0729,0 0.0344,-0.0538 -0.0344,-0.1741 0,-0.22778 0.0344,-0.0536 0.10229,0.0339 0.14574,0 0.0307,-0.024 0.0422,-0.0899 0.0728,-0.11391 0.0217,-0.017 0.0557,0.0268 0.0729,0 0.15078,-0.23565 -0.23039,0.009 0.0728,-0.2278 0.0288,-0.0225 0.20371,0.0233 0.21861,0 0.0172,-0.0268 -0.0172,-0.087 0,-0.1139 h 0.0728 c 0.0243,0 0.0557,0.027 0.0728,0 0.0172,-0.0268 -0.0172,-0.087 0,-0.11389 0.002,-0.004 0.20093,0 0.21861,0 h 1.09304 0.43722 c 0.0173,0 0.27515,-0.0128 0.29148,0 0.0307,0.024 0.0421,0.0899 0.0728,0.11389 0.0583,0.0456 0.1603,-0.0456 0.2186,0 0.0307,0.024 0.0421,0.0899 0.0729,0.1139 0.0217,0.017 0.0485,0 0.0728,0 0.0243,0.038 0.0422,0.0899 0.0729,0.11391 0.0288,0.0225 0.2037,-0.0233 0.2186,0 0.0172,0.0268 -0.0172,0.087 0,0.1139 0.0172,0.0268 0.0557,-0.0268 0.0728,0 0.0172,0.0268 -0.0172,0.087 0,0.1139 0.0344,0.0536 0.1114,-0.0536 0.14574,0 0.0172,0.027 -0.0172,0.087 0,0.1139 0.0172,0.0268 0.0557,-0.0268 0.0728,0 0.0172,0.0268 -0.0172,0.087 0,0.11389 0.0172,0.0268 0.0557,-0.0268 0.0728,0 0.0344,0.0537 -0.0344,0.1741 0,0.2278 0.0172,0.0268 0.0557,-0.027 0.0729,0 0.0172,0.0268 -0.0172,0.087 0,0.11391 0.0172,0.0268 0.0557,-0.027 0.0728,0 0.0149,0.0233 -0.0144,0.29652 0,0.34167 0.0154,0.048 0.0575,0.0659 0.0728,0.1139 0.0109,0.0339 -0.0172,0.087 0,0.1139 0.0172,0.0268 0.0557,-0.0268 0.0729,0 0.0172,0.0268 0,0.076 0,0.1139 v 0.1139 c 0,0.038 0.0243,0.1139 0,0.1139 -0.10323,0 0.20646,-0.5315 0,0.1139 -0.0109,0.0339 -0.0485,0 -0.0729,0 -0.0243,0 -0.0728,0.038 -0.0728,0 0,-0.038 0.0512,0.017 0.0728,0 0.0307,-0.024 0.0485,-0.076 0.0729,-0.1139 0.0243,-0.038 0.0485,-0.076 0.0728,-0.1139"
       id="path8171-4"
       inkscape:connector-curvature="0"
       sodipodi:nodetypes="ccccccccccccsccscscccccccscccscsccsscccssssscssccc" />
    <path
       style="opacity:1;fill:#1a0125;fill-opacity:1;stroke:#192539;stroke-width:0.04634297;stroke-miterlimit:4;stroke-dasharray:0.04634297, 0.13902892;stroke-dashoffset:0;stroke-opacity:1"
       id="path8155-1-0-9"
       sodipodi:type="arc"
       sodipodi:cx="158.34837"
       sodipodi:cy="265.34454"
       sodipodi:rx="0.84178108"
       sodipodi:ry="0.86550921"
       sodipodi:start="3.3360179"
       sodipodi:end="3.1415927"
       d="m 157.52245,265.17732 a 0.84178108,0.86550921 0 0 1 0.94824,-0.6891 0.84178108,0.86550921 0 0 1 0.71549,0.94033 0.84178108,0.86550921 0 0 1 -0.87871,0.78048 0.84178108,0.86550921 0 0 1 -0.80088,-0.86449"
       sodipodi:open="true" />
    <flowRoot
       xml:space="preserve"
       id="flowRoot11415"
       style="font-style:normal;font-weight:normal;font-size:40px;line-height:1.25;font-family:sans-serif;letter-spacing:0px;word-spacing:0px;fill:#000000;fill-opacity:1;stroke:none"
       transform="matrix(0.26458333,0,0,0.26458333,0,87)"><flowRegion
         id="flowRegion11417"><rect
           id="rect11419"
           width="134.28572"
           height="84.64286"
           x="537.14288"
           y="719.05792" /></flowRegion><flowPara
         id="flowPara11421" /></flowRoot>    <flowRoot
       xml:space="preserve"
       id="flowRoot11423"
       style="font-style:normal;font-weight:normal;font-size:40px;line-height:1.25;font-family:sans-serif;letter-spacing:0px;word-spacing:0px;fill:#000000;fill-opacity:1;stroke:none"
       transform="matrix(0.20135381,0,0,0.17664411,46.764362,137.30427)"><flowRegion
         id="flowRegion11425"><rect
           id="rect11427"
           width="247.55586"
           height="153.76219"
           x="523.92859"
           y="732.98651" /></flowRegion><flowPara
         id="flowPara11429">θ</flowPara></flowRoot>    <path
       style="fill:none;stroke:#000000;stroke-width:0.26458332px;stroke-linecap:butt;stroke-linejoin:miter;stroke-opacity:1"
       d="m 149.13639,266.79854 c 0.51452,-0.12863 0.0772,-0.0809 0.40091,0 0.0432,0.0108 0.0891,0 0.13363,0 0.0223,0 0.0469,-0.01 0.0668,0 0.0282,0.0141 0.0369,0.0569 0.0668,0.0668 0.0634,0.0211 0.13706,-0.0211 0.20045,0 0.0472,0.0157 0.0864,0.0511 0.13363,0.0668 0.0211,0.007 0.0511,-0.0158 0.0668,0 0.0157,0.0157 -0.0157,0.0511 0,0.0668 0.0315,0.0315 0.0938,-0.0199 0.13364,0 0.0282,0.0141 0.0386,0.0527 0.0668,0.0668 0.0398,0.0199 0.0938,-0.0199 0.13363,0 0.0282,0.0141 0.0386,0.0527 0.0668,0.0668 0.0398,0.0199 0.10213,-0.0315 0.13363,0 0.0157,0.0157 -0.0157,0.0511 0,0.0668 0.0315,0.0315 0.10214,-0.0315 0.13364,0 0.0157,0.0157 -0.0157,0.0511 0,0.0668 0.0157,0.0158 0.0469,-0.01 0.0668,0 0.0564,0.0282 0.0739,0.11372 0.13364,0.13364 0.0423,0.0141 0.0891,0 0.13363,0 0.0223,0 0.0469,-0.01 0.0668,0 0.0282,0.0141 0.0386,0.0527 0.0668,0.0668 0.0199,0.01 0.0511,-0.0157 0.0668,0 0.0315,0.0315 -0.0315,0.10214 0,0.13364 0.0315,0.0315 0.10213,-0.0315 0.13363,0 0.0157,0.0157 -0.01,0.0469 0,0.0668 0.0141,0.0282 0.0569,0.0369 0.0668,0.0668 0.0141,0.0423 -0.0199,0.0938 0,0.13364 0.01,0.0199 0.0511,-0.0157 0.0668,0 0.0157,0.0157 -0.0157,0.0511 0,0.0668 0.0157,0.0157 0.0511,-0.0157 0.0668,0 0.0315,0.0315 -0.0315,0.10213 0,0.13363 0.0157,0.0157 0.0511,-0.0157 0.0668,0 0.0315,0.0315 -0.0315,0.10214 0,0.13364 0.0157,0.0157 0.0511,-0.0157 0.0668,0 0.0136,0.0136 -0.0133,0.17396 0,0.20045 0.0141,0.0282 0.0527,0.0386 0.0668,0.0668 0.01,0.0199 -0.01,0.0469 0,0.0668 0.0141,0.0282 0.0527,0.0386 0.0668,0.0668 0.01,0.0199 0,0.0445 0,0.0668 0.0223,0.0223 0.0527,0.0386 0.0668,0.0668 0.01,0.0199 0,0.0445 0,0.0668 0,0.0223 0.0157,0.0511 0,0.0668 -0.0157,0.0157 -0.0511,-0.0157 -0.0668,0 -0.0157,0.0157 0.0157,0.0511 0,0.0668 -0.0157,0.0157 -0.0511,-0.0157 -0.0668,0 -0.0157,0.0157 -0.0223,0.0668 0,0.0668 0.0315,0 0.0445,-0.0445 0.0668,-0.0668"
       id="path11431"
       inkscape:connector-curvature="0" />
    <flowRoot
       xml:space="preserve"
       id="flowRoot5650"
       style="font-style:normal;font-weight:normal;font-size:40px;line-height:1.25;font-family:sans-serif;letter-spacing:0px;word-spacing:0px;fill:#000000;fill-opacity:1;stroke:none"
       transform="matrix(0.16574325,0,0,0.17384879,15.800079,101.38823)"><flowRegion
         id="flowRegion5652"><rect
           id="rect5654"
           width="133.34016"
           height="64.64975"
           x="541.94684"
           y="506.32663" /></flowRegion><flowPara
         id="flowPara5656">z=1/2</flowPara></flowRoot>  </g>
</svg>
